<svg width="50" height="50" viewBox="0 0 500 500" fill="none" xmlns="http://www.w3.org/2000/svg">
<path d="M 375.004 425.98 C 421.763 425.98 460.463 387.772 451.814 341.824 C 446.379 313.026 438.167 284.789 427.267 257.549 C 405.885 204.136 374.528 155.613 335.017 114.746 C 295.502 73.86 248.59 41.441 196.956 19.317 C 171.456 8.392 145.067 0.097 118.147 -5.505 C 72.385 -15.053 34.108 23.715 34.108 70.459 L 34.108 341.332 C 34.108 388.091 71.997 425.98 118.756 425.98 L 375.004 425.98 Z" style="fill: rgb(147, 82, 255); transform-origin: 243.569px 209.509px;" transform="matrix(0, 1, -1, 0, -0.000030517578, 0)"></path>
<g style="mix-blend-mode: multiply; transform-origin: 21.4657px 13.2132px;" transform="matrix(0, 16.929626464844, -16.929626464844, 0, 222.369077202224, 277.476440481725)">
<path d="M13.7013 26C10.9399 26 8.65395 23.7425 9.16502 21.0288C9.48544 19.3274 9.97031 17.6594 10.6147 16.0502C11.878 12.8958 13.7295 10.0295 16.0637 7.61522C18.3979 5.2009 21.169 3.28575 24.2187 1.97913C25.7244 1.33406 27.2834 0.843538 28.8733 0.512196C31.5767 -0.0511821 33.8382 2.23858 33.8382 5V21C33.8382 23.7614 31.5996 26 28.8382 26H13.7013Z" style="fill: rgb(205, 97, 254);"></path>
</g>
</svg>