<?xml version="1.0" encoding="utf-8"?>
<svg viewBox="0 0 414.856 68.556" xmlns="http://www.w3.org/2000/svg" xmlns:bx="https://boxy-svg.com">
  <defs>
    <style bx:fonts="JetBrains Mono">@import url(https://fonts.googleapis.com/css2?family=JetBrains+Mono%3Aital%2Cwght%400%2C100%3B0%2C200%3B0%2C300%3B0%2C400%3B0%2C500%3B0%2C600%3B0%2C700%3B0%2C800%3B1%2C100%3B1%2C200%3B1%2C300%3B1%2C400%3B1%2C500%3B1%2C600%3B1%2C700%3B1%2C800&amp;display=swap);</style>
  </defs>
  <path d="M 43.126 54.233 C 48.704 54.233 53.323 49.818 52.291 44.513 C 51.644 41.186 50.665 37.925 49.361 34.779 C 46.809 28.613 43.066 23.007 38.35 18.288 C 33.635 13.568 28.035 9.824 21.873 7.269 C 18.832 6.008 15.681 5.048 12.468 4.4 C 7.005 3.3 2.436 7.775 2.436 13.175 L 2.436 44.456 C 2.436 49.855 6.958 54.233 12.539 54.233 L 43.126 54.233 Z" style="transform-box: fill-box; transform-origin: 50% 50%; fill: rgb(147, 82, 255);" transform="matrix(-0.000001, 1, -1, -0.000001, -0.000003, 0.000001)"/>
  <g style="mix-blend-mode: multiply; transform-origin: 21.4657px 13.2132px;" transform="matrix(0, 2.020602, -1.955135, 0, 6.270804, 26.2117)">
    <path d="M13.7013 26C10.9399 26 8.65395 23.7425 9.16502 21.0288C9.48544 19.3274 9.97031 17.6594 10.6147 16.0502C11.878 12.8958 13.7295 10.0295 16.0637 7.61522C18.3979 5.2009 21.169 3.28575 24.2187 1.97913C25.7244 1.33406 27.2834 0.843538 28.8733 0.512196C31.5767 -0.0511821 33.8382 2.23858 33.8382 5V21C33.8382 23.7614 31.5996 26 28.8382 26H13.7013Z" style="fill: rgb(198, 61, 255);"/>
  </g>
  <text style="fill: rgb(51, 51, 51); font-family: 'JetBrains Mono'; font-size: 57.5px; white-space: pre;" x="61.399" y="55.959">ByteBazaar</text>
</svg>